<mxfile host="app.diagrams.net" modified="2023-05-19T10:47:00.340Z" agent="Mozilla/5.0 (Windows NT 10.0; Win64; x64) AppleWebKit/537.36 (KHTML, like Gecko) Chrome/113.0.0.0 Safari/537.36" version="21.3.2" etag="YWM9o600hZ4J7pHA9I_d" type="github">
  <diagram name="1 oldal" id="0Bh29bmTRFkNZsEby93R">
    <mxGraphModel>
      <root>
        <mxCell id="0" />
        <mxCell id="1" parent="0" />
      </root>
    </mxGraphModel>
  </diagram>
</mxfile>
